<mxfile host="app.diagrams.net" modified="2023-04-20T08:01:38.326Z" agent="Mozilla/5.0 (Windows NT 10.0; Win64; x64) AppleWebKit/537.36 (KHTML, like Gecko) Chrome/112.0.0.0 Safari/537.36" etag="m9fhp1m-9UiSm_q51ECT" version="21.2.0" type="github">
  <diagram name="Page-1" id="1xiT796pE4uhlNcr8itj">
    <mxGraphModel dx="1900" dy="581" grid="1" gridSize="10" guides="1" tooltips="1" connect="1" arrows="1" fold="1" page="1" pageScale="1" pageWidth="850" pageHeight="1100" math="0" shadow="0">
      <root>
        <mxCell id="0" />
        <mxCell id="1" parent="0" />
        <mxCell id="riCPANN87FU-jdtlxthD-18" style="edgeStyle=orthogonalEdgeStyle;rounded=0;orthogonalLoop=1;jettySize=auto;html=1;exitX=1;exitY=0.5;exitDx=0;exitDy=0;entryX=0.015;entryY=0.589;entryDx=0;entryDy=0;entryPerimeter=0;" edge="1" parent="1" source="riCPANN87FU-jdtlxthD-1" target="riCPANN87FU-jdtlxthD-17">
          <mxGeometry relative="1" as="geometry" />
        </mxCell>
        <mxCell id="riCPANN87FU-jdtlxthD-20" style="edgeStyle=orthogonalEdgeStyle;rounded=0;orthogonalLoop=1;jettySize=auto;html=1;exitX=1;exitY=0.75;exitDx=0;exitDy=0;entryX=0;entryY=0;entryDx=0;entryDy=30;entryPerimeter=0;" edge="1" parent="1" source="riCPANN87FU-jdtlxthD-1" target="riCPANN87FU-jdtlxthD-19">
          <mxGeometry relative="1" as="geometry" />
        </mxCell>
        <mxCell id="riCPANN87FU-jdtlxthD-1" value="" style="rounded=1;whiteSpace=wrap;html=1;fillColor=#6d8764;strokeColor=#3A5431;fontColor=#ffffff;" vertex="1" parent="1">
          <mxGeometry x="280" y="80" width="260" height="78.75" as="geometry" />
        </mxCell>
        <mxCell id="riCPANN87FU-jdtlxthD-2" value="&lt;b&gt;&lt;font style=&quot;font-size: 17px;&quot;&gt;Data Bridge&lt;/font&gt;&lt;/b&gt;" style="text;html=1;strokeColor=none;fillColor=none;align=center;verticalAlign=middle;whiteSpace=wrap;rounded=0;" vertex="1" parent="1">
          <mxGeometry x="332.5" y="97.37" width="155" height="45" as="geometry" />
        </mxCell>
        <mxCell id="riCPANN87FU-jdtlxthD-6" style="edgeStyle=orthogonalEdgeStyle;rounded=0;orthogonalLoop=1;jettySize=auto;html=1;exitX=0.5;exitY=0;exitDx=0;exitDy=0;exitPerimeter=0;entryX=0;entryY=0.5;entryDx=0;entryDy=0;" edge="1" parent="1" source="riCPANN87FU-jdtlxthD-4" target="riCPANN87FU-jdtlxthD-1">
          <mxGeometry relative="1" as="geometry" />
        </mxCell>
        <mxCell id="riCPANN87FU-jdtlxthD-4" value="" style="shape=cylinder3;whiteSpace=wrap;html=1;boundedLbl=1;backgroundOutline=1;size=15;direction=south;fillColor=#fa6800;strokeColor=#C73500;fontColor=#000000;" vertex="1" parent="1">
          <mxGeometry x="20" y="91.12" width="140" height="57.5" as="geometry" />
        </mxCell>
        <mxCell id="riCPANN87FU-jdtlxthD-5" value="&lt;b&gt;Balance Actions&lt;/b&gt;" style="text;html=1;strokeColor=none;fillColor=none;align=center;verticalAlign=middle;whiteSpace=wrap;rounded=0;" vertex="1" parent="1">
          <mxGeometry x="20" y="97.37" width="110" height="44" as="geometry" />
        </mxCell>
        <mxCell id="riCPANN87FU-jdtlxthD-21" style="edgeStyle=orthogonalEdgeStyle;rounded=0;orthogonalLoop=1;jettySize=auto;html=1;exitX=1;exitY=0.5;exitDx=0;exitDy=0;entryX=0;entryY=0;entryDx=0;entryDy=60;entryPerimeter=0;" edge="1" parent="1" source="riCPANN87FU-jdtlxthD-7" target="riCPANN87FU-jdtlxthD-19">
          <mxGeometry relative="1" as="geometry" />
        </mxCell>
        <mxCell id="riCPANN87FU-jdtlxthD-22" style="edgeStyle=orthogonalEdgeStyle;rounded=0;orthogonalLoop=1;jettySize=auto;html=1;exitX=0.5;exitY=0;exitDx=0;exitDy=0;entryX=0.5;entryY=1;entryDx=0;entryDy=0;" edge="1" parent="1" source="riCPANN87FU-jdtlxthD-7" target="riCPANN87FU-jdtlxthD-1">
          <mxGeometry relative="1" as="geometry" />
        </mxCell>
        <mxCell id="riCPANN87FU-jdtlxthD-7" value="" style="rounded=1;whiteSpace=wrap;html=1;fillColor=#647687;strokeColor=#314354;fontColor=#ffffff;" vertex="1" parent="1">
          <mxGeometry x="280" y="300" width="260" height="78.75" as="geometry" />
        </mxCell>
        <mxCell id="riCPANN87FU-jdtlxthD-8" value="&lt;b&gt;&lt;font style=&quot;font-size: 17px;&quot;&gt;Approver Service&lt;/font&gt;&lt;/b&gt;" style="text;html=1;strokeColor=none;fillColor=none;align=center;verticalAlign=middle;whiteSpace=wrap;rounded=0;" vertex="1" parent="1">
          <mxGeometry x="332.5" y="317.37" width="155" height="45" as="geometry" />
        </mxCell>
        <mxCell id="riCPANN87FU-jdtlxthD-9" style="edgeStyle=orthogonalEdgeStyle;rounded=0;orthogonalLoop=1;jettySize=auto;html=1;exitX=0.5;exitY=0;exitDx=0;exitDy=0;exitPerimeter=0;entryX=0;entryY=0.5;entryDx=0;entryDy=0;" edge="1" parent="1" source="riCPANN87FU-jdtlxthD-10" target="riCPANN87FU-jdtlxthD-7">
          <mxGeometry relative="1" as="geometry" />
        </mxCell>
        <mxCell id="riCPANN87FU-jdtlxthD-10" value="" style="shape=cylinder3;whiteSpace=wrap;html=1;boundedLbl=1;backgroundOutline=1;size=15;direction=south;fillColor=#fa6800;strokeColor=#C73500;fontColor=#000000;" vertex="1" parent="1">
          <mxGeometry x="20" y="311.12" width="140" height="57.5" as="geometry" />
        </mxCell>
        <mxCell id="riCPANN87FU-jdtlxthD-11" value="&lt;b&gt;Withdraw MQ&lt;/b&gt;" style="text;html=1;strokeColor=none;fillColor=none;align=center;verticalAlign=middle;whiteSpace=wrap;rounded=0;" vertex="1" parent="1">
          <mxGeometry x="30" y="317.37" width="100" height="44" as="geometry" />
        </mxCell>
        <mxCell id="riCPANN87FU-jdtlxthD-12" value="" style="endArrow=classic;html=1;rounded=0;entryX=0.817;entryY=0.987;entryDx=0;entryDy=0;entryPerimeter=0;" edge="1" parent="1" target="riCPANN87FU-jdtlxthD-4">
          <mxGeometry width="50" height="50" relative="1" as="geometry">
            <mxPoint x="-40" y="160" as="sourcePoint" />
            <mxPoint x="20" y="140" as="targetPoint" />
          </mxGeometry>
        </mxCell>
        <mxCell id="riCPANN87FU-jdtlxthD-13" value="" style="endArrow=classic;html=1;rounded=0;" edge="1" parent="1">
          <mxGeometry width="50" height="50" relative="1" as="geometry">
            <mxPoint x="-40" y="119" as="sourcePoint" />
            <mxPoint x="20" y="120" as="targetPoint" />
          </mxGeometry>
        </mxCell>
        <mxCell id="riCPANN87FU-jdtlxthD-14" value="" style="endArrow=classic;html=1;rounded=0;entryX=0.199;entryY=0.994;entryDx=0;entryDy=0;entryPerimeter=0;" edge="1" parent="1" target="riCPANN87FU-jdtlxthD-4">
          <mxGeometry width="50" height="50" relative="1" as="geometry">
            <mxPoint x="-40" y="80" as="sourcePoint" />
            <mxPoint x="20" y="100" as="targetPoint" />
          </mxGeometry>
        </mxCell>
        <mxCell id="riCPANN87FU-jdtlxthD-17" value="&lt;b&gt;Click House&lt;/b&gt;" style="shape=cylinder3;whiteSpace=wrap;html=1;boundedLbl=1;backgroundOutline=1;size=15;fillColor=#fa6800;fontColor=#000000;strokeColor=#C73500;" vertex="1" parent="1">
          <mxGeometry x="710" y="68.75" width="80" height="90" as="geometry" />
        </mxCell>
        <mxCell id="riCPANN87FU-jdtlxthD-19" value="&lt;b&gt;MariaDB&lt;/b&gt;" style="shape=cylinder3;whiteSpace=wrap;html=1;boundedLbl=1;backgroundOutline=1;size=15;fillColor=#dae8fc;strokeColor=#6c8ebf;gradientColor=#7ea6e0;" vertex="1" parent="1">
          <mxGeometry x="710" y="294.87" width="80" height="90" as="geometry" />
        </mxCell>
      </root>
    </mxGraphModel>
  </diagram>
</mxfile>
